<svg width="283" height="98" viewBox="0 0 283 98" fill="none" xmlns="http://www.w3.org/2000/svg">
<path d="M5.66244e-07 73.5V-1.43051e-06H7.35V73.5H5.66244e-07ZM23.3398 9.25V0.999998H30.6898V9.25H23.3398ZM23.3398 73.5V19.5H30.6898V73.5H23.3398ZM69.9297 75C64.963 75 60.763 73.75 57.3297 71.25C53.8964 68.7167 51.2964 65.3 49.5297 61C47.763 56.6667 46.8797 51.8167 46.8797 46.45C46.8797 40.9833 47.763 36.1167 49.5297 31.85C51.3297 27.55 53.963 24.1667 57.4297 21.7C60.8964 19.2333 65.163 18 70.2297 18C75.163 18 79.3964 19.25 82.9297 21.75C86.463 24.25 89.163 27.65 91.0297 31.95C92.9297 36.25 93.8797 41.0833 93.8797 46.45C93.8797 51.85 92.9297 56.7 91.0297 61C89.1297 65.3 86.3964 68.7167 82.8297 71.25C79.263 73.75 74.963 75 69.9297 75ZM45.6297 73.5V1.5H53.0297V32.85H52.2297V73.5H45.6297ZM69.1797 68.15C72.9464 68.15 76.0797 67.2 78.5797 65.3C81.0797 63.4 82.9464 60.8167 84.1797 57.55C85.4464 54.25 86.0797 50.55 86.0797 46.45C86.0797 42.3833 85.463 38.7167 84.2297 35.45C82.9964 32.1833 81.113 29.6 78.5797 27.7C76.0797 25.8 72.8964 24.85 69.0297 24.85C65.263 24.85 62.1297 25.7667 59.6297 27.6C57.163 29.4333 55.313 31.9833 54.0797 35.25C52.8464 38.4833 52.2297 42.2167 52.2297 46.45C52.2297 50.6167 52.8464 54.35 54.0797 57.65C55.313 60.9167 57.1797 63.4833 59.6797 65.35C62.1797 67.2167 65.3464 68.15 69.1797 68.15ZM127.709 75C122.443 75 117.876 73.8333 114.009 71.5C110.176 69.1667 107.193 65.8833 105.059 61.65C102.926 57.4167 101.859 52.45 101.859 46.75C101.859 40.85 102.909 35.75 105.009 31.45C107.109 27.15 110.059 23.8333 113.859 21.5C117.693 19.1667 122.209 18 127.409 18C132.743 18 137.293 19.2333 141.059 21.7C144.826 24.1333 147.676 27.6333 149.609 32.2C151.543 36.7667 152.426 42.2167 152.259 48.55H144.759V45.95C144.626 38.95 143.109 33.6667 140.209 30.1C137.343 26.5333 133.143 24.75 127.609 24.75C121.809 24.75 117.359 26.6333 114.259 30.4C111.193 34.1667 109.659 39.5333 109.659 46.5C109.659 53.3 111.193 58.5833 114.259 62.35C117.359 66.0833 121.743 67.95 127.409 67.95C131.276 67.95 134.643 67.0667 137.509 65.3C140.409 63.5 142.693 60.9167 144.359 57.55L151.209 60.2C149.076 64.9 145.926 68.55 141.759 71.15C137.626 73.7167 132.943 75 127.709 75ZM107.059 48.55V42.4H148.309V48.55H107.059ZM163.355 73.5V19.5H169.955V32.5L168.655 30.8C169.255 29.2 170.039 27.7333 171.005 26.4C171.972 25.0333 173.022 23.9167 174.155 23.05C175.555 21.8167 177.189 20.8833 179.055 20.25C180.922 19.5833 182.805 19.2 184.705 19.1C186.605 18.9667 188.339 19.1 189.905 19.5V26.4C187.939 25.9 185.789 25.7833 183.455 26.05C181.122 26.3167 178.972 27.25 177.005 28.85C175.205 30.25 173.855 31.9333 172.955 33.9C172.055 35.8333 171.455 37.9 171.155 40.1C170.855 42.2667 170.705 44.4167 170.705 46.55V73.5H163.355ZM228.791 73.5C225.757 74.1333 222.757 74.3833 219.791 74.25C216.857 74.1167 214.224 73.4833 211.891 72.35C209.591 71.2167 207.841 69.45 206.641 67.05C205.674 65.05 205.141 63.0333 205.041 61C204.974 58.9333 204.941 56.5833 204.941 53.95V4.49999H212.241V53.65C212.241 55.9167 212.257 57.8167 212.291 59.35C212.357 60.85 212.707 62.1833 213.341 63.35C214.541 65.5833 216.441 66.9167 219.041 67.35C221.674 67.7833 224.924 67.6833 228.791 67.05V73.5ZM193.391 25.8V19.5H228.791V25.8H193.391ZM245.665 97.5L256.115 69.15L256.265 77.55L232.615 19.5H240.415L259.815 68.05H256.615L274.515 19.5H282.015L253.015 97.5H245.665Z" fill="black"/>
</svg>
